<svg width="101" height="87" viewBox="0 0 101 87" fill="none" xmlns="http://www.w3.org/2000/svg">
<rect width="99.5087" height="85.5189" transform="translate(0.554565 0.872559)" fill="white"/>
<path d="M61.9567 38.7202L61.8791 38.7202C59.2868 38.7202 56.9149 39.6453 55.0863 41.1728C53.2484 42.7251 52.0314 44.9169 51.8886 47.4005L51.8917 47.4005C51.752 49.9525 52.7765 52.3182 54.5771 54.0784C56.4709 55.8853 59.0322 56.9936 61.8542 56.9936L62.0622 56.9936C64.8843 56.9936 67.4455 55.8853 69.33 54.0815C71.1307 52.3213 72.1552 49.9525 72.0155 47.3974C71.8758 44.9169 70.6619 42.7251 68.824 41.1728C66.8945 39.5732 64.4629 38.7048 61.9567 38.7202Z" fill="#1976D2"/>
<path d="M81.6273 65.2545C83.8408 62.8326 85.5101 59.9649 86.5232 56.8442L86.5697 56.6797C87.2352 54.5846 87.5704 52.3986 87.5632 50.2004C87.5573 46.0614 86.3867 42.0076 84.1854 38.5024C82.672 36.0885 80.747 33.9586 78.4979 32.2095L78.442 32.1691L78.4482 32.1691L55.1081 14.2496C53.5807 13.0761 51.0132 13.0823 49.3336 14.2558C47.6354 15.4418 47.4429 17.4069 48.9518 18.6488L48.9487 18.6519L58.6535 26.5468L29.0267 26.5778C26.5803 26.5809 24.2301 28.186 23.7644 30.2164C23.2863 32.2809 24.9442 33.9946 27.4899 34.0039L27.4899 34.0101L42.485 33.9791L15.6181 54.5996C13.0941 56.5306 12.2807 59.747 13.8702 61.7805C15.4846 63.8512 18.9151 63.8543 21.4671 61.7929L36.0709 49.8434C36.0709 49.8434 35.8567 51.4578 35.8753 52.4233L35.8691 52.4202C35.8878 53.395 36.1982 55.2826 36.6639 56.7604C37.673 59.946 39.3662 62.8726 41.625 65.3352C43.9979 67.9407 46.8833 70.0282 50.1004 71.4667L50.2619 71.5319C53.7884 73.1001 57.6068 73.9042 61.4663 73.8913L61.6805 73.8913C65.7164 73.8913 69.5474 73.0252 73.009 71.4791C76.2719 70.0253 79.1995 67.9136 81.6087 65.2762L81.6273 65.2545ZM76.6072 52.8021C75.9082 54.6834 74.8171 56.3946 73.4064 57.8221L73.4002 57.8252C70.3888 60.8925 66.179 62.6311 61.6184 62.6373C57.0547 62.6497 52.8418 60.9236 49.8304 57.8625C48.4326 56.4588 47.3471 54.7755 46.6451 52.9231L46.614 52.8269C46.0909 51.3861 45.8261 49.8643 45.8317 48.3315C45.8317 45.9969 46.4371 43.805 47.4926 41.8957C48.397 40.2742 49.6012 38.8393 51.0411 37.6673L51.0691 37.6456C53.9936 35.2613 57.7159 33.9729 61.6122 33.9667C65.5084 33.9605 69.2339 35.2395 72.1615 37.6145C73.6517 38.8284 74.8624 40.2658 75.7379 41.8585C76.6041 43.3859 77.1815 45.1866 77.3554 47.1021L77.3585 47.1518C77.5291 49.0676 77.2725 50.9974 76.6072 52.8021Z" fill="#FF9800"/>
</svg>
